<?xml version="1.0" encoding="UTF-8"?>
<!DOCTYPE svg PUBLIC "-//W3C//DTD SVG 1.1//EN" "http://www.w3.org/Graphics/SVG/1.1/DTD/svg11.dtd">
<svg xmlns="http://www.w3.org/2000/svg" version="1.1" width="174px" height="212px" style="shape-rendering:geometricPrecision; text-rendering:geometricPrecision; image-rendering:optimizeQuality; fill-rule:evenodd; clip-rule:evenodd" xmlns:xlink="http://www.w3.org/1999/xlink">
<g><path style="opacity:1" fill="#fefffe" d="M -0.5,-0.5 C 57.5,-0.5 115.5,-0.5 173.5,-0.5C 173.5,70.1667 173.5,140.833 173.5,211.5C 115.5,211.5 57.5,211.5 -0.5,211.5C -0.5,140.833 -0.5,70.1667 -0.5,-0.5 Z"/></g>
<g><path style="opacity:1" fill="#000000" d="M 46.5,5.5 C 73.1667,5.5 99.8333,5.5 126.5,5.5C 126.5,18.8333 126.5,32.1667 126.5,45.5C 139.833,45.5 153.167,45.5 166.5,45.5C 166.5,98.8333 166.5,152.167 166.5,205.5C 113.167,205.5 59.8333,205.5 6.5,205.5C 6.5,152.167 6.5,98.8333 6.5,45.5C 19.8333,45.5 33.1667,45.5 46.5,45.5C 46.5,32.1667 46.5,18.8333 46.5,5.5 Z"/></g>
<g><path style="opacity:1" fill="#fefffe" d="M 66.5,25.5 C 79.8333,25.5 93.1667,25.5 106.5,25.5C 106.5,32.1667 106.5,38.8333 106.5,45.5C 93.1667,45.5 79.8333,45.5 66.5,45.5C 66.5,38.8333 66.5,32.1667 66.5,25.5 Z"/></g>
<g><path style="opacity:1" fill="#fefffe" d="M 26.5,65.5 C 33.1667,65.5 39.8333,65.5 46.5,65.5C 46.5,72.1667 46.5,78.8333 46.5,85.5C 53.1667,85.5 59.8333,85.5 66.5,85.5C 66.5,78.8333 66.5,72.1667 66.5,65.5C 79.8333,65.5 93.1667,65.5 106.5,65.5C 106.5,72.1667 106.5,78.8333 106.5,85.5C 113.167,85.5 119.833,85.5 126.5,85.5C 126.5,78.8333 126.5,72.1667 126.5,65.5C 133.167,65.5 139.833,65.5 146.5,65.5C 146.5,105.5 146.5,145.5 146.5,185.5C 106.5,185.5 66.5,185.5 26.5,185.5C 26.5,145.5 26.5,105.5 26.5,65.5 Z"/></g>
</svg>
