<?xml version="1.0" encoding="UTF-8"?>
<!DOCTYPE svg PUBLIC "-//W3C//DTD SVG 1.1//EN" "http://www.w3.org/Graphics/SVG/1.1/DTD/svg11.dtd">
<svg xmlns="http://www.w3.org/2000/svg" version="1.1" width="193px" height="156px" style="shape-rendering:geometricPrecision; text-rendering:geometricPrecision; image-rendering:optimizeQuality; fill-rule:evenodd; clip-rule:evenodd" xmlns:xlink="http://www.w3.org/1999/xlink">
<g><path style="opacity:1" fill="#fdfdfd" d="M -0.5,-0.5 C 63.8333,-0.5 128.167,-0.5 192.5,-0.5C 192.5,51.5 192.5,103.5 192.5,155.5C 128.167,155.5 63.8333,155.5 -0.5,155.5C -0.5,103.5 -0.5,51.5 -0.5,-0.5 Z"/></g>
<g><path style="opacity:1" fill="#060606" d="M 32.5,2.5 C 46.1707,2.33343 59.8374,2.5001 73.5,3C 79.9725,11.3057 86.9725,19.1391 94.5,26.5C 102.028,19.1391 109.028,11.3057 115.5,3C 129.179,2.16726 142.846,2.33393 156.5,3.5C 165.667,18.5 174.833,33.5 184,48.5C 185.59,50.6498 186.257,52.9832 186,55.5C 155.5,84.6667 125.667,114.5 96.5,145C 95.1667,145.667 93.8333,145.667 92.5,145C 63.3333,114.5 33.5,84.6667 3,55.5C 2.74339,52.9832 3.41006,50.6498 5,48.5C 14.4411,33.2768 23.6077,17.9434 32.5,2.5 Z"/></g>
<g><path style="opacity:1" fill="#fdfdfd" d="M 43.5,22.5 C 50.5079,22.3337 57.5079,22.5004 64.5,23C 74.3433,34.3413 84.3433,45.508 94.5,56.5C 104.657,45.508 114.657,34.3413 124.5,23C 131.524,22.1689 138.524,22.3356 145.5,23.5C 151.219,32.4369 156.552,41.6036 161.5,51C 138.981,73.3524 116.647,95.8524 94.5,118.5C 72.3525,95.8524 50.0192,73.3524 27.5,51C 33.0732,41.6037 38.4066,32.1037 43.5,22.5 Z"/></g>
</svg>
