<?xml version="1.0" encoding="UTF-8"?>
<!DOCTYPE svg PUBLIC "-//W3C//DTD SVG 1.1//EN" "http://www.w3.org/Graphics/SVG/1.1/DTD/svg11.dtd">
<svg xmlns="http://www.w3.org/2000/svg" version="1.1" width="193px" height="194px" style="shape-rendering:geometricPrecision; text-rendering:geometricPrecision; image-rendering:optimizeQuality; fill-rule:evenodd; clip-rule:evenodd" xmlns:xlink="http://www.w3.org/1999/xlink">
<g><path style="opacity:1" fill="#fefefe" d="M -0.5,-0.5 C 63.8333,-0.5 128.167,-0.5 192.5,-0.5C 192.5,64.1667 192.5,128.833 192.5,193.5C 128.167,193.5 63.8333,193.5 -0.5,193.5C -0.5,128.833 -0.5,64.1667 -0.5,-0.5 Z"/></g>
<g><path style="opacity:1" fill="#040404" d="M 60.5,3.5 C 99.244,1.44953 125.411,18.4495 139,54.5C 143.959,76.1162 140.459,96.2829 128.5,115C 146.959,134.46 165.792,153.626 185,172.5C 185.667,173.167 185.667,173.833 185,174.5C 180.833,178.667 176.667,182.833 172.5,187C 171.833,187.667 171.167,187.667 170.5,187C 151.833,168.333 133.167,149.667 114.5,131C 113.5,130.333 112.5,130.333 111.5,131C 75.7223,151.859 43.889,147.026 16,116.5C -7.00257,80.1616 -2.8359,47.3283 28.5,18C 38.3893,11.2179 49.056,6.3846 60.5,3.5 Z"/></g>
<g><path style="opacity:1" fill="#fdfdfd" d="M 62.5,23.5 C 92.9128,21.7641 112.413,35.4307 121,64.5C 123.357,92.9641 111.19,112.131 84.5,122C 54.1945,127.008 33.6945,115.175 23,86.5C 18.444,54.2615 31.6107,33.2615 62.5,23.5 Z"/></g>
</svg>
