<?xml version="1.0" encoding="UTF-8"?>
<!DOCTYPE svg PUBLIC "-//W3C//DTD SVG 1.1//EN" "http://www.w3.org/Graphics/SVG/1.1/DTD/svg11.dtd">
<svg xmlns="http://www.w3.org/2000/svg" version="1.1" width="205px" height="190px" style="shape-rendering:geometricPrecision; text-rendering:geometricPrecision; image-rendering:optimizeQuality; fill-rule:evenodd; clip-rule:evenodd" xmlns:xlink="http://www.w3.org/1999/xlink">
<g><path style="opacity:1" fill="#fdfdfd" d="M -0.5,-0.5 C 67.8333,-0.5 136.167,-0.5 204.5,-0.5C 204.5,62.8333 204.5,126.167 204.5,189.5C 136.167,189.5 67.8333,189.5 -0.5,189.5C -0.5,126.167 -0.5,62.8333 -0.5,-0.5 Z"/></g>
<g><path style="opacity:1" fill="#030303" d="M 93.5,4.5 C 127.103,3.368 147.936,19.0347 156,51.5C 157.97,82.7414 144.137,103.241 114.5,113C 81.1907,117.675 59.0241,104.175 48,72.5C 43.5091,36.5177 58.6758,13.851 93.5,4.5 Z"/></g>
<g><path style="opacity:1" fill="#fcfcfc" d="M 94.5,24.5 C 113.836,22.9093 127.336,30.9093 135,48.5C 139.32,69.361 131.82,84.1943 112.5,93C 91.363,97.845 76.5297,90.345 68,70.5C 63.6911,47.4377 72.5244,32.1043 94.5,24.5 Z"/></g>
<g><path style="opacity:1" fill="#030303" d="M 40.5,124.5 C 81.5054,124.167 122.505,124.5 163.5,125.5C 175.538,141.084 187.205,156.917 198.5,173C 195.528,176.3 192.195,179.3 188.5,182C 186.788,183.751 184.788,184.418 182.5,184C 172.955,171.077 163.288,158.244 153.5,145.5C 118.833,144.167 84.1667,144.167 49.5,145.5C 39.7888,158.958 29.6221,171.958 19,184.5C 14.8438,181.682 10.6771,178.848 6.5,176C 4.78885,174.867 4.28885,173.367 5,171.5C 16.6655,155.673 28.4988,140.006 40.5,124.5 Z"/></g>
</svg>
